<svg width="41" height="41" viewBox="0 0 41 41" fill="none" xmlns="http://www.w3.org/2000/svg">
<g clip-path="url(#clip0_128_1002)">
<path d="M14.2829 1.34847C10.1863 2.7696 6.65349 5.46694 4.20325 9.04431C1.75302 12.6217 0.514537 16.8905 0.669731 21.2238C0.824926 25.557 2.36561 29.7263 5.06549 33.1192C7.76537 36.5121 11.4821 38.9498 15.6698 40.0743C19.0649 40.9503 22.6219 40.9888 26.0351 40.1864C29.1272 39.4918 31.9858 38.0062 34.3312 35.875C36.7723 33.589 38.5441 30.681 39.4562 27.4636C40.4477 23.9647 40.6241 20.2851 39.9719 16.7075H20.9069V24.616H31.9481C31.7274 25.8773 31.2546 27.0812 30.5578 28.1555C29.861 29.2299 28.9547 30.1526 27.893 30.8685C26.5447 31.7603 25.0249 32.3604 23.431 32.6302C21.8325 32.9274 20.1928 32.9274 18.5943 32.6302C16.9741 32.2952 15.4414 31.6265 14.0939 30.6667C11.9291 29.1343 10.3036 26.9572 9.44936 24.4462C8.58072 21.8882 8.58072 19.1149 9.44936 16.5569C10.0574 14.7639 11.0626 13.1313 12.3898 11.781C13.9087 10.2075 15.8317 9.08273 17.9478 8.53012C20.0638 7.97752 22.2912 8.01844 24.3855 8.64839C26.0216 9.15062 27.5177 10.0281 28.7546 11.2109C29.9995 9.97235 31.2424 8.73061 32.483 7.48566C33.1237 6.81621 33.8219 6.17878 34.453 5.49332C32.5649 3.73633 30.3487 2.36917 27.9314 1.47019C23.5294 -0.128202 18.7127 -0.171157 14.2829 1.34847Z" fill="white"/>
<path d="M14.2829 1.34807C18.7124 -0.172586 23.5291 -0.130762 27.9315 1.46659C30.3492 2.37168 32.5644 3.74542 34.4498 5.50893C33.8092 6.1944 33.1333 6.83503 32.4799 7.50128C31.2371 8.74195 29.9953 9.97836 28.7547 11.2105C27.5178 10.0277 26.0217 9.15022 24.3856 8.648C22.292 8.01583 20.0646 7.97255 17.948 8.52289C15.8314 9.07323 13.9073 10.1959 12.3867 11.7678C11.0594 13.1181 10.0543 14.7506 9.44623 16.5437L2.80615 11.4027C5.1829 6.68948 9.29808 3.08425 14.2829 1.34807Z" fill="#E33629"/>
<path d="M1.04415 16.4963C1.40105 14.7275 1.99357 13.0146 2.80587 11.4033L9.44595 16.5571C8.57731 19.1152 8.57731 21.8884 9.44595 24.4464C7.23366 26.1548 5.0203 27.8717 2.80587 29.5971C0.772368 25.5493 0.152185 20.9374 1.04415 16.4963Z" fill="#F8BD00"/>
<path d="M20.9067 16.7041H39.9717C40.6238 20.2818 40.4474 23.9613 39.456 27.4602C38.5439 30.6777 36.772 33.5857 34.331 35.8716C32.1881 34.1996 30.0356 32.5404 27.8927 30.8683C28.9551 30.1517 29.8619 29.228 30.5587 28.1525C31.2555 27.077 31.728 25.8719 31.9479 24.6094H20.9067C20.9035 21.9764 20.9067 19.3403 20.9067 16.7041Z" fill="#587DBD"/>
<path d="M2.80273 29.5969C5.01716 27.8886 7.23052 26.1717 9.44281 24.4463C10.2987 26.9582 11.9265 29.1353 14.0938 30.6668C15.4455 31.6221 16.9815 32.2854 18.6038 32.6143C20.2023 32.9115 21.8419 32.9115 23.4405 32.6143C25.0343 32.3445 26.5542 31.7444 27.9024 30.8525C30.0453 32.5246 32.1978 34.1838 34.3407 35.8558C31.9957 37.9882 29.137 39.475 26.0446 40.1704C22.6314 40.9728 19.0744 40.9344 15.6793 40.0583C12.9941 39.3414 10.486 38.0775 8.31211 36.3459C6.01118 34.5191 4.13189 32.217 2.80273 29.5969Z" fill="#319F43"/>
</g>
<defs>
<clipPath id="clip0_128_1002">
<rect width="41" height="41" fill="white"/>
</clipPath>
</defs>
</svg>
